{
    "asset" : {
        "generator" : "Khronos glTF Blender I/O v1.5.17",
        "version" : "2.0"
    },
    "scene" : 0,
    "scenes" : [
        {
            "name" : "Scene",
            "nodes" : [
                0,
                1,
                2,
                3,
                4,
                5
            ]
        }
    ],
    "nodes" : [
        {
            "mesh" : 0,
            "name" : "head",
            "rotation" : [
                0,
                1,
                0,
                -1.6292068494294654e-07
            ],
            "scale" : [
                0.8222399353981018,
                0.8222399353981018,
                0.8222399353981018
            ],
            "translation" : [
                -0.002636280842125416,
                0,
                1.3608829975128174
            ]
        },
        {
            "mesh" : 1,
            "name" : "Icosphere",
            "rotation" : [
                0,
                1,
                0,
                -1.6292068494294654e-07
            ],
            "scale" : [
                0.3131100535392761,
                0.3131100535392761,
                0.3131100535392761
            ],
            "translation" : [
                0.005158544518053532,
                -0.012976408004760742,
                0.2983022928237915
            ]
        },
        {
            "mesh" : 2,
            "name" : "Cylinder",
            "rotation" : [
                0,
                1,
                0,
                -1.6292068494294654e-07
            ],
            "scale" : [
                0.08215412497520447,
                0.2425318956375122,
                0.08215412497520447
            ],
            "translation" : [
                -0.005263194441795349,
                -0.4576159119606018,
                0.47742021083831787
            ]
        },
        {
            "mesh" : 3,
            "name" : "Cube",
            "rotation" : [
                0,
                1,
                0,
                -1.6292068494294654e-07
            ],
            "scale" : [
                0.14522850513458252,
                0.14522850513458252,
                0.14522850513458252
            ],
            "translation" : [
                -0.0032817237079143524,
                -0.16308093070983887,
                -0.5034828186035156
            ]
        },
        {
            "mesh" : 4,
            "name" : "Cube.001",
            "rotation" : [
                0.44115811586380005,
                0.7569088339805603,
                0.16859066486358643,
                -0.4517142176628113
            ],
            "scale" : [
                0.3449465036392212,
                0.3449465036392212,
                0.3449465036392212
            ],
            "translation" : [
                0.0012121163308620453,
                2.175847053527832,
                0.6056836843490601
            ]
        },
        {
            "mesh" : 5,
            "name" : "head.003",
            "rotation" : [
                0.00721800746396184,
                0.9949662685394287,
                0.09936995804309845,
                -0.010755573399364948
            ],
            "scale" : [
                0.8222399353981018,
                0.8222399353981018,
                0.8222399353981018
            ],
            "translation" : [
                -0.003098483197391033,
                0.009868398308753967,
                1.843842625617981
            ]
        }
    ],
    "materials" : [
        {
            "doubleSided" : true,
            "name" : "black",
            "pbrMetallicRoughness" : {
                "baseColorFactor" : [
                    0.08714018017053604,
                    0.08714018017053604,
                    0.08714018017053604,
                    1
                ],
                "metallicFactor" : 0
            }
        },
        {
            "doubleSided" : true,
            "name" : "white",
            "pbrMetallicRoughness" : {
                "baseColorFactor" : [
                    1,
                    0.9626210331916809,
                    0.9335126280784607,
                    1
                ],
                "metallicFactor" : 0,
                "roughnessFactor" : 0.5
            }
        },
        {
            "doubleSided" : true,
            "name" : "blue",
            "pbrMetallicRoughness" : {
                "baseColorFactor" : [
                    0.03872774913907051,
                    0.7621185779571533,
                    0.8000000715255737,
                    1
                ],
                "metallicFactor" : 0,
                "roughnessFactor" : 0.5
            }
        }
    ],
    "meshes" : [
        {
            "name" : "Cube",
            "primitives" : [
                {
                    "attributes" : {
                        "POSITION" : 0,
                        "NORMAL" : 1,
                        "TEXCOORD_0" : 2
                    },
                    "indices" : 3,
                    "material" : 0
                },
                {
                    "attributes" : {
                        "POSITION" : 4,
                        "NORMAL" : 5,
                        "TEXCOORD_0" : 6
                    },
                    "indices" : 7,
                    "material" : 1
                },
                {
                    "attributes" : {
                        "POSITION" : 8,
                        "NORMAL" : 9,
                        "TEXCOORD_0" : 10
                    },
                    "indices" : 11,
                    "material" : 2
                }
            ]
        },
        {
            "name" : "Icosphere.008",
            "primitives" : [
                {
                    "attributes" : {
                        "POSITION" : 12,
                        "NORMAL" : 13,
                        "TEXCOORD_0" : 14
                    },
                    "indices" : 15,
                    "material" : 1
                }
            ]
        },
        {
            "name" : "Cylinder",
            "primitives" : [
                {
                    "attributes" : {
                        "POSITION" : 16,
                        "NORMAL" : 17,
                        "TEXCOORD_0" : 18
                    },
                    "indices" : 19,
                    "material" : 0
                }
            ]
        },
        {
            "name" : "Cube.001",
            "primitives" : [
                {
                    "attributes" : {
                        "POSITION" : 20,
                        "NORMAL" : 21,
                        "TEXCOORD_0" : 22
                    },
                    "indices" : 23,
                    "material" : 2
                }
            ]
        },
        {
            "name" : "Cube.003",
            "primitives" : [
                {
                    "attributes" : {
                        "POSITION" : 24,
                        "NORMAL" : 25,
                        "TEXCOORD_0" : 26
                    },
                    "indices" : 27,
                    "material" : 2
                },
                {
                    "attributes" : {
                        "POSITION" : 28,
                        "NORMAL" : 29,
                        "TEXCOORD_0" : 30
                    },
                    "indices" : 31,
                    "material" : 0
                }
            ]
        },
        {
            "name" : "Cube.007",
            "primitives" : [
                {
                    "attributes" : {
                        "POSITION" : 32,
                        "NORMAL" : 33,
                        "TEXCOORD_0" : 34
                    },
                    "indices" : 35,
                    "material" : 2
                }
            ]
        }
    ],
    "accessors" : [
        {
            "bufferView" : 0,
            "componentType" : 5126,
            "count" : 1595,
            "max" : [
                0.767714262008667,
                0.7318515777587891,
                0.6747751832008362
            ],
            "min" : [
                -0.767714262008667,
                -0.4233472943305969,
                -0.610749363899231
            ],
            "type" : "VEC3"
        },
        {
            "bufferView" : 1,
            "componentType" : 5126,
            "count" : 1595,
            "type" : "VEC3"
        },
        {
            "bufferView" : 2,
            "componentType" : 5126,
            "count" : 1595,
            "type" : "VEC2"
        },
        {
            "bufferView" : 3,
            "componentType" : 5123,
            "count" : 6576,
            "type" : "SCALAR"
        },
        {
            "bufferView" : 4,
            "componentType" : 5126,
            "count" : 808,
            "max" : [
                0.4476178288459778,
                0.19061054289340973,
                0.04808145761489868
            ],
            "min" : [
                -0.4476178288459778,
                -0.065519779920578,
                -0.206790953874588
            ],
            "type" : "VEC3"
        },
        {
            "bufferView" : 5,
            "componentType" : 5126,
            "count" : 808,
            "type" : "VEC3"
        },
        {
            "bufferView" : 6,
            "componentType" : 5126,
            "count" : 808,
            "type" : "VEC2"
        },
        {
            "bufferView" : 7,
            "componentType" : 5123,
            "count" : 3456,
            "type" : "SCALAR"
        },
        {
            "bufferView" : 8,
            "componentType" : 5126,
            "count" : 432,
            "max" : [
                0.7451700568199158,
                0.6901426315307617,
                0.45055264234542847
            ],
            "min" : [
                -0.7451700568199158,
                -0.021429354324936867,
                -0.17711414396762848
            ],
            "type" : "VEC3"
        },
        {
            "bufferView" : 9,
            "componentType" : 5126,
            "count" : 432,
            "type" : "VEC3"
        },
        {
            "bufferView" : 10,
            "componentType" : 5126,
            "count" : 432,
            "type" : "VEC2"
        },
        {
            "bufferView" : 11,
            "componentType" : 5123,
            "count" : 1536,
            "type" : "SCALAR"
        },
        {
            "bufferView" : 12,
            "componentType" : 5126,
            "count" : 14175,
            "max" : [
                2.420666456222534,
                1.3591283559799194,
                2.654447078704834
            ],
            "min" : [
                -2.3708765506744385,
                -3.013637065887451,
                -3.349626302719116
            ],
            "type" : "VEC3"
        },
        {
            "bufferView" : 13,
            "componentType" : 5126,
            "count" : 14175,
            "type" : "VEC3"
        },
        {
            "bufferView" : 14,
            "componentType" : 5126,
            "count" : 14175,
            "type" : "VEC2"
        },
        {
            "bufferView" : 15,
            "componentType" : 5123,
            "count" : 50400,
            "type" : "SCALAR"
        },
        {
            "bufferView" : 16,
            "componentType" : 5126,
            "count" : 2464,
            "max" : [
                4.124874591827393,
                -0.7453136444091797,
                6.795348644256592
            ],
            "min" : [
                -4.124874591827393,
                -2.704396963119507,
                -7.158843517303467
            ],
            "type" : "VEC3"
        },
        {
            "bufferView" : 17,
            "componentType" : 5126,
            "count" : 2464,
            "type" : "VEC3"
        },
        {
            "bufferView" : 18,
            "componentType" : 5126,
            "count" : 2464,
            "type" : "VEC2"
        },
        {
            "bufferView" : 19,
            "componentType" : 5123,
            "count" : 3696,
            "type" : "SCALAR"
        },
        {
            "bufferView" : 20,
            "componentType" : 5126,
            "count" : 154,
            "max" : [
                0.4961870312690735,
                5.066528797149658,
                1.9033339023590088
            ],
            "min" : [
                -0.4961870312690735,
                -1,
                -1
            ],
            "type" : "VEC3"
        },
        {
            "bufferView" : 21,
            "componentType" : 5126,
            "count" : 154,
            "type" : "VEC3"
        },
        {
            "bufferView" : 22,
            "componentType" : 5126,
            "count" : 154,
            "type" : "VEC2"
        },
        {
            "bufferView" : 23,
            "componentType" : 5123,
            "count" : 234,
            "type" : "SCALAR"
        },
        {
            "bufferView" : 24,
            "componentType" : 5126,
            "count" : 96,
            "max" : [
                1,
                1,
                1
            ],
            "min" : [
                -1,
                -1,
                -1
            ],
            "type" : "VEC3"
        },
        {
            "bufferView" : 25,
            "componentType" : 5126,
            "count" : 96,
            "type" : "VEC3"
        },
        {
            "bufferView" : 26,
            "componentType" : 5126,
            "count" : 96,
            "type" : "VEC2"
        },
        {
            "bufferView" : 27,
            "componentType" : 5123,
            "count" : 132,
            "type" : "SCALAR"
        },
        {
            "bufferView" : 28,
            "componentType" : 5126,
            "count" : 984,
            "max" : [
                -0.2767484188079834,
                -0.25741100311279297,
                -0.26862049102783203
            ],
            "min" : [
                -3.065002679824829,
                -3.1761550903320312,
                -3.6764206886291504
            ],
            "type" : "VEC3"
        },
        {
            "bufferView" : 29,
            "componentType" : 5126,
            "count" : 984,
            "type" : "VEC3"
        },
        {
            "bufferView" : 30,
            "componentType" : 5126,
            "count" : 984,
            "type" : "VEC2"
        },
        {
            "bufferView" : 31,
            "componentType" : 5123,
            "count" : 1476,
            "type" : "SCALAR"
        },
        {
            "bufferView" : 32,
            "componentType" : 5126,
            "count" : 86,
            "max" : [
                0.10692393779754639,
                0.06364599615335464,
                0.021002840250730515
            ],
            "min" : [
                -0.10696350783109665,
                -0.06749387830495834,
                -0.033988818526268005
            ],
            "type" : "VEC3"
        },
        {
            "bufferView" : 33,
            "componentType" : 5126,
            "count" : 86,
            "type" : "VEC3"
        },
        {
            "bufferView" : 34,
            "componentType" : 5126,
            "count" : 86,
            "type" : "VEC2"
        },
        {
            "bufferView" : 35,
            "componentType" : 5123,
            "count" : 126,
            "type" : "SCALAR"
        }
    ],
    "bufferViews" : [
        {
            "buffer" : 0,
            "byteLength" : 19140,
            "byteOffset" : 0
        },
        {
            "buffer" : 0,
            "byteLength" : 19140,
            "byteOffset" : 19140
        },
        {
            "buffer" : 0,
            "byteLength" : 12760,
            "byteOffset" : 38280
        },
        {
            "buffer" : 0,
            "byteLength" : 13152,
            "byteOffset" : 51040
        },
        {
            "buffer" : 0,
            "byteLength" : 9696,
            "byteOffset" : 64192
        },
        {
            "buffer" : 0,
            "byteLength" : 9696,
            "byteOffset" : 73888
        },
        {
            "buffer" : 0,
            "byteLength" : 6464,
            "byteOffset" : 83584
        },
        {
            "buffer" : 0,
            "byteLength" : 6912,
            "byteOffset" : 90048
        },
        {
            "buffer" : 0,
            "byteLength" : 5184,
            "byteOffset" : 96960
        },
        {
            "buffer" : 0,
            "byteLength" : 5184,
            "byteOffset" : 102144
        },
        {
            "buffer" : 0,
            "byteLength" : 3456,
            "byteOffset" : 107328
        },
        {
            "buffer" : 0,
            "byteLength" : 3072,
            "byteOffset" : 110784
        },
        {
            "buffer" : 0,
            "byteLength" : 170100,
            "byteOffset" : 113856
        },
        {
            "buffer" : 0,
            "byteLength" : 170100,
            "byteOffset" : 283956
        },
        {
            "buffer" : 0,
            "byteLength" : 113400,
            "byteOffset" : 454056
        },
        {
            "buffer" : 0,
            "byteLength" : 100800,
            "byteOffset" : 567456
        },
        {
            "buffer" : 0,
            "byteLength" : 29568,
            "byteOffset" : 668256
        },
        {
            "buffer" : 0,
            "byteLength" : 29568,
            "byteOffset" : 697824
        },
        {
            "buffer" : 0,
            "byteLength" : 19712,
            "byteOffset" : 727392
        },
        {
            "buffer" : 0,
            "byteLength" : 7392,
            "byteOffset" : 747104
        },
        {
            "buffer" : 0,
            "byteLength" : 1848,
            "byteOffset" : 754496
        },
        {
            "buffer" : 0,
            "byteLength" : 1848,
            "byteOffset" : 756344
        },
        {
            "buffer" : 0,
            "byteLength" : 1232,
            "byteOffset" : 758192
        },
        {
            "buffer" : 0,
            "byteLength" : 468,
            "byteOffset" : 759424
        },
        {
            "buffer" : 0,
            "byteLength" : 1152,
            "byteOffset" : 759892
        },
        {
            "buffer" : 0,
            "byteLength" : 1152,
            "byteOffset" : 761044
        },
        {
            "buffer" : 0,
            "byteLength" : 768,
            "byteOffset" : 762196
        },
        {
            "buffer" : 0,
            "byteLength" : 264,
            "byteOffset" : 762964
        },
        {
            "buffer" : 0,
            "byteLength" : 11808,
            "byteOffset" : 763228
        },
        {
            "buffer" : 0,
            "byteLength" : 11808,
            "byteOffset" : 775036
        },
        {
            "buffer" : 0,
            "byteLength" : 7872,
            "byteOffset" : 786844
        },
        {
            "buffer" : 0,
            "byteLength" : 2952,
            "byteOffset" : 794716
        },
        {
            "buffer" : 0,
            "byteLength" : 1032,
            "byteOffset" : 797668
        },
        {
            "buffer" : 0,
            "byteLength" : 1032,
            "byteOffset" : 798700
        },
        {
            "buffer" : 0,
            "byteLength" : 688,
            "byteOffset" : 799732
        },
        {
            "buffer" : 0,
            "byteLength" : 252,
            "byteOffset" : 800420
        }
    ],
    "buffers" : [
        {
            "byteLength" : 800672,
            "uri" : "data:application/octet-stream;base64,"
        }
    ]
}
